<?xml version="1.0" encoding="UTF-8" standalone="no"?>
<!-- Created with Inkscape (http://www.inkscape.org/) -->

<svg
   width="210mm"
   height="297mm"
   viewBox="0 0 210 297"
   version="1.1"
   id="svg5"
   inkscape:version="1.1.1 (3bf5ae0d25, 2021-09-20)"
   sodipodi:docname="Кофеварка.svg"
   xmlns:inkscape="http://www.inkscape.org/namespaces/inkscape"
   xmlns:sodipodi="http://sodipodi.sourceforge.net/DTD/sodipodi-0.dtd"
   xmlns="http://www.w3.org/2000/svg"
   xmlns:svg="http://www.w3.org/2000/svg">
  <sodipodi:namedview
     id="namedview7"
     pagecolor="#ffffff"
     bordercolor="#666666"
     borderopacity="1.0"
     inkscape:pageshadow="2"
     inkscape:pageopacity="0.0"
     inkscape:pagecheckerboard="0"
     inkscape:document-units="mm"
     showgrid="false"
     inkscape:zoom="7.9999999"
     inkscape:cx="391.9375"
     inkscape:cy="505.3125"
     inkscape:window-width="1880"
     inkscape:window-height="991"
     inkscape:window-x="-9"
     inkscape:window-y="-9"
     inkscape:window-maximized="1"
     inkscape:current-layer="layer1"
     showguides="true"
     inkscape:guide-bbox="true"
     inkscape:snap-global="false" />
  <defs
     id="defs2" />
  <g
     inkscape:label="Набросок"
     inkscape:groupmode="layer"
     id="layer1"
     style="display:inline">
    <g
       id="g45975">
      <path
         style="fill:#000000;stroke:#000000;stroke-width:0.265;stroke-linecap:butt;stroke-linejoin:miter;stroke-miterlimit:4;stroke-dasharray:none;stroke-opacity:1"
         d="m 155.62682,261.88762 c 0,0 0.43322,2.36078 -1.41316,3.97859 -1.84638,1.61782 -5.05679,1.32943 -5.05679,1.32943 H 69.787639 c 0,0 -3.210409,0.28839 -5.056791,-1.32942 -1.846382,-1.61782 -1.413158,-3.9786 -1.413158,-3.9786"
         id="path22009"
         sodipodi:nodetypes="czcczc" />
      <path
         style="fill:#000000;stroke:#000000;stroke-width:0.265;stroke-linecap:butt;stroke-linejoin:miter;stroke-miterlimit:4;stroke-dasharray:none;stroke-opacity:1"
         d="m 67.409318,267.09451 c 0,0 -0.394818,1.16756 1.287881,1.96768 1.6827,0.80012 4.608505,0.65749 4.608505,0.65749 h 72.333116 c 0,0 2.92581,0.14263 4.60851,-0.65749 1.6827,-0.80012 1.28788,-1.96768 1.28788,-1.96768"
         id="path22019"
         sodipodi:nodetypes="czcczc" />
    </g>
    <path
       style="fill:#cccccc;stroke:#cccccc;stroke-width:0.268414px;stroke-linecap:butt;stroke-linejoin:miter;stroke-opacity:1"
       d="m 160.82951,242.10745 -0.274,17.55406 c 0,0 0.1889,1.09135 -1.98674,1.78334 -2.17564,0.69199 -2.16748,0.48456 -9.32061,0.57996 H 69.986406 c -7.15314,-0.0954 -7.14498,0.11203 -9.32062,-0.57996 -2.17564,-0.69199 -1.9867,-1.78342 -1.9867,-1.78342 l 0.218019,-17.87835 c 1.8983,2.04186 6.526481,1.93595 6.589231,1.95475 0,0 36.783514,-1.12642 44.158924,-1.12642 7.37542,0 44.20109,1.26675 44.20109,1.26675 1.45449,0.002 5.38339,0.80472 6.98316,-1.77071"
       id="path23485"
       sodipodi:nodetypes="cczcczccczcc" />
    <path
       style="fill:#000000;stroke:#000000;stroke-width:0.166679px;stroke-linecap:butt;stroke-linejoin:miter;stroke-opacity:1"
       d="m 58.188412,79.197306 c 0,0 -0.164832,-1.825154 1.733247,-2.982353 1.898079,-1.157193 3.940918,-1.086796 10.18147,-1.246383 h 78.738261 c 6.24055,0.159587 8.28339,0.08919 10.18147,1.246383 1.89807,1.157199 1.73324,2.982353 1.73324,2.982353"
       id="path3177"
       sodipodi:nodetypes="czcczc" />
    <path
       style="fill:#000000;stroke:#000000;stroke-width:0.170983;stroke-linecap:butt;stroke-linejoin:miter;stroke-miterlimit:4;stroke-dasharray:none;stroke-opacity:1"
       d="m 69.247087,74.968554 c 0,0 4.56425,0.07876 9.931497,-0.908667 3.093191,-0.569068 7.474623,-1.647333 8.7797,-2.900629 h 43.027946 c 1.30507,1.253296 5.6865,2.331561 8.7797,2.900629 5.36724,0.987427 9.93149,0.908667 9.93149,0.908667"
       id="path2907"
       sodipodi:nodetypes="csccsc" />
    <path
       style="fill:#e6e6e6;stroke:#e6e6e6;stroke-width:0.264583px;stroke-linecap:butt;stroke-linejoin:miter;stroke-opacity:1"
       d="m 50.123621,88.514157 4.233204,60.386183 110.337765,0.13229 4.1263,-60.518481 c -0.58812,0.720074 -0.58812,0.720074 0,0 l -118.697267,8e-6"
       id="path11984"
       sodipodi:nodetypes="cccccc" />
    <path
       style="fill:#000000;stroke:#000000;stroke-width:0.264583px;stroke-linecap:butt;stroke-linejoin:miter;stroke-opacity:1"
       d="m 161.08123,237.6305 c -3.06787,-7.20504 -5.45648,-84.91427 -5.45648,-84.91427 0,0 -1.21037,76.37834 1.85168,83.48145 1.92879,4.47426 -1.36072,5.13682 -3.98636,5.16132 -1.54269,0.0144 -2.79124,-0.0616 -2.79124,-0.0616 0,0 -27.50801,-1.12643 -41.23055,-1.12643 -13.722545,0 -41.043464,1.12643 -41.043464,1.12643 0,0 -1.248545,0.076 -2.791238,0.0616 -2.62564,-0.0245 -5.915156,-0.68706 -3.986366,-5.16132 3.06205,-7.10311 -1.479964,-83.3638 -1.479964,-83.3638 0,0 1.587904,77.327 -1.479964,84.53204 -0.963398,2.26259 -0.591806,3.57413 0.324238,4.5583 0,0 0.187342,0.89135 2.759809,1.40584 2.57247,0.51449 5.752978,0.42095 7.10937,0.28063 1.356394,-0.14031 17.773425,-0.60803 17.773425,-0.60803 0,0 18.428234,-0.37418 19.176584,-0.32741 0.74836,0.0468 15.20096,0.14032 16.86137,0.28064 0,0 9.54152,0.21047 11.48257,0.30402 1.94104,0.0935 14.05503,0.46772 14.05503,0.46772 0,0 5.94007,0.14031 6.71181,0.18709 0.77174,0.0468 4.51351,0.44433 5.85452,-1.76466 0.69513,-1.11079 1.24862,-2.25697 0.28522,-4.51956 z"
       id="path16917"
       sodipodi:nodetypes="sccsczcsccscsscscscscs" />
    <rect
       style="fill:#1a1a1a;fill-opacity:1;stroke:#000000;stroke-width:0.311728;stroke-linecap:round;stroke-miterlimit:4;stroke-dasharray:none;stroke-opacity:1;stop-color:#000000"
       id="rect23828"
       width="57.752998"
       height="32.13871"
       x="80.608154"
       y="102.14461"
       ry="5.8251419" />
    <rect
       style="fill:#dbe2e3;fill-opacity:1;stroke:#dbe2e3;stroke-width:0.238966;stroke-linecap:round;stroke-miterlimit:4;stroke-dasharray:none;stroke-opacity:1;stop-color:#000000"
       id="rect24208"
       width="10.409455"
       height="3.1129973"
       x="85.874008"
       y="127.1223"
       ry="0.46772036" />
    <rect
       style="fill:#dbe2e3;fill-opacity:1;stroke:#dbe2e3;stroke-width:0.238966;stroke-linecap:round;stroke-miterlimit:4;stroke-dasharray:none;stroke-opacity:1;stop-color:#000000"
       id="rect24347"
       width="10.409455"
       height="3.1129973"
       x="98.177139"
       y="127.1223"
       ry="0.32740518" />
    <rect
       style="fill:#dbe2e3;fill-opacity:1;stroke:#dbe2e3;stroke-width:0.238966;stroke-linecap:round;stroke-miterlimit:4;stroke-dasharray:none;stroke-opacity:1;stop-color:#000000"
       id="rect24349"
       width="10.409455"
       height="3.1129973"
       x="110.38262"
       y="127.1223"
       ry="0.280633" />
    <rect
       style="fill:#dbe2e3;fill-opacity:1;stroke:#dbe2e3;stroke-width:0.238966;stroke-linecap:round;stroke-miterlimit:4;stroke-dasharray:none;stroke-opacity:1;stop-color:#000000"
       id="rect24351"
       width="10.409455"
       height="3.1129973"
       x="122.68575"
       y="127.1223"
       ry="0.32740518" />
    <rect
       style="fill:#5599ff;fill-opacity:1;stroke:#000000;stroke-width:0.333365;stroke-linecap:round;stroke-miterlimit:4;stroke-dasharray:none;stroke-opacity:1;stop-color:#000000"
       id="rect24084"
       width="23.386335"
       height="12.228149"
       x="97.791443"
       y="106.90018"
       ry="2.216352" />
    <rect
       style="fill:#333333;fill-opacity:1;stroke:#333333;stroke-width:0.264999;stroke-linecap:round;stroke-miterlimit:4;stroke-dasharray:none;stroke-opacity:1;stop-color:#000000"
       id="rect24786"
       width="6.0803819"
       height="1.2160764"
       x="86.717873"
       y="112.86995" />
    <g
       id="g27581"
       transform="translate(0.16536,-3.2259027)">
      <path
         style="fill:none;stroke:#000000;stroke-width:0.264583px;stroke-linecap:butt;stroke-linejoin:miter;stroke-opacity:1"
         d="m 78.390151,165.57347 -0.748355,1.6838 c 0,0 -9.354431,8.2319 -10.289876,20.57975 -0.479475,6.32907 -0.955325,17.51616 0.434794,26.74015 1.419493,9.41889 3.306978,15.35481 3.306978,15.35481"
         id="path25090"
         sodipodi:nodetypes="ccssc" />
      <path
         style="fill:none;stroke:#000000;stroke-width:0.264583px;stroke-linecap:butt;stroke-linejoin:miter;stroke-opacity:1"
         d="m 70.842187,233.82552 c -1.599859,3.0387 -0.04678,4.46083 -0.04678,4.46083"
         id="path25797"
         sodipodi:nodetypes="cc" />
      <path
         style="fill:none;stroke:#000000;stroke-width:0.264583px;stroke-linecap:butt;stroke-linejoin:miter;stroke-opacity:1"
         d="m 71.093692,229.93198 c 0.338457,1.019 0.490027,2.50698 -0.286584,3.9637"
         id="path26025"
         sodipodi:nodetypes="cc" />
    </g>
    <path
       style="fill:none;stroke:#000000;stroke-width:0.264583px;stroke-linecap:butt;stroke-linejoin:miter;stroke-opacity:1"
       d="m 70.9277,235.02738 c 3.30354,3.49721 19.08916,3.84247 36.65765,3.92417 17.56849,0.0817 38.54973,-2.36636 40.42309,-4.1226"
       id="path27745"
       sodipodi:nodetypes="czc" />
    <g
       id="g29825"
       transform="matrix(-1,0,0,1,218.80385,-3.4574101)">
      <path
         style="fill:none;stroke:#000000;stroke-width:0.264583px;stroke-linecap:butt;stroke-linejoin:miter;stroke-opacity:1"
         d="m 78.390151,165.71963 -0.748355,1.53764 c 0,0 -9.354431,8.2319 -10.289876,20.57975 -0.479475,6.32907 -0.955325,17.51616 0.434794,26.74015 1.419493,9.41889 3.306978,15.35481 3.306978,15.35481"
         id="path29819"
         sodipodi:nodetypes="ccssc" />
      <path
         style="fill:none;stroke:#000000;stroke-width:0.264583px;stroke-linecap:butt;stroke-linejoin:miter;stroke-opacity:1"
         d="m 70.842187,233.82552 c -1.599859,3.0387 -0.04678,4.46083 -0.04678,4.46083"
         id="path29821"
         sodipodi:nodetypes="cc" />
      <path
         style="fill:none;stroke:#000000;stroke-width:0.264583px;stroke-linecap:butt;stroke-linejoin:miter;stroke-opacity:1"
         d="m 71.093692,229.93198 c 0.338457,1.019 0.490027,2.50698 -0.286584,3.9637"
         id="path29823"
         sodipodi:nodetypes="cc" />
    </g>
    <path
       style="display:inline;fill:none;stroke:#000000;stroke-width:0.270919px;stroke-linecap:butt;stroke-linejoin:miter;stroke-opacity:1"
       d="m 68.98374,177.44532 c 3.4686,3.4922 20.04298,3.83698 38.48933,3.91856 18.44634,0.0816 40.47594,-2.36299 42.44291,-4.11672"
       id="path32354-1"
       sodipodi:nodetypes="czc" />
    <path
       style="fill:#cccccc;stroke:#cccccc;stroke-width:0.264487px;stroke-linecap:butt;stroke-linejoin:miter;stroke-opacity:1"
       d="m 107.64712,234.52368 c 17.55948,0.0817 38.52996,-2.36584 40.3478,-4.12285 0,0 -0.38196,-0.79627 -0.52228,-1.54462 -0.14031,-0.74835 0.21031,-2.20307 0.21031,-2.20307 -1.83474,1.6111 -22.6434,4.05909 -40.06739,3.97739 -17.42399,-0.0817 -33.07977,-0.42695 -36.345455,-3.85479 0,0 0.384855,1.70629 0.291309,2.22079 -0.09354,0.51449 -0.533823,1.62043 -0.533823,1.62043 3.282519,3.47986 19.060049,3.82504 36.619529,3.90672 z"
       id="path32356"
       sodipodi:nodetypes="zcsczcscz" />
    <ellipse
       style="fill:#000000;fill-opacity:1;stroke:#000000;stroke-width:0.214858;stroke-linecap:round;stroke-miterlimit:4;stroke-dasharray:none;stroke-opacity:1;stop-color:#000000"
       id="path37858"
       cx="109.48644"
       cy="160.15536"
       rx="34.228321"
       ry="1.2530653" />
    <g
       id="g5952">
      <path
         id="ellipse38326"
         style="fill:#000000;stroke:#000000;stroke-width:0.278668;stroke-linecap:round;stop-color:#000000"
         d="m 75.287922,160.10895 -0.762819,1.2569 c 0.01799,0.73684 6.678155,1.43241 17.489663,1.80879 10.811514,0.37638 24.131844,0.37638 34.943354,0 10.81151,-0.37638 17.47167,-1.07195 17.47296,-1.82351 l -0.7528,-1.2099"
         sodipodi:nodetypes="ccsscc" />
    </g>
    <path
       id="rect40605"
       style="fill:#ffffff;fill-opacity:1;stroke:#000000;stroke-width:0.251888;stroke-linecap:round;stroke-miterlimit:4;stroke-dasharray:none;stroke-opacity:1;stop-color:#000000"
       d="m 105.58073,153.7331 c -0.51317,0 -0.92629,0.3839 -0.92629,0.86077 v 0.7378 c 0,0.0132 4.5e-4,0.0258 0.001,0.0389 -2.76874,0.18965 -4.818811,0.53173 -4.780799,1.00246 1.546609,1.53789 2.844159,2.82701 3.973919,3.87061 h -0.20675 c -2.06535,0 -3.727887,1.54543 -3.727887,3.46471 v 69.23467 c 0,1.91928 1.662537,3.46423 3.727887,3.46423 h 11.65246 c 2.06535,0 3.72789,-1.54495 3.72789,-3.46423 v -69.23467 c 0,-1.91928 -1.66254,-3.46471 -3.72789,-3.46471 h -0.15455 c 1.12447,-1.04399 2.41577,-2.33337 3.95532,-3.87061 0,-0.54694 -2.03562,-0.89042 -4.78081,-1.05579 v -0.72339 c 0,-0.47687 -0.41312,-0.86077 -0.92629,-0.86077 z" />
    <path
       style="fill:#000000;stroke:#000000;stroke-width:0.125197;stroke-linecap:round;stroke-miterlimit:4;stroke-dasharray:none;stop-color:#000000"
       d=""
       id="path3663"
       transform="scale(0.26458333)" />
    <path
       style="fill:#000000;stroke:#000000;stroke-width:0.125197;stroke-linecap:round;stroke-miterlimit:4;stroke-dasharray:none;stop-color:#000000"
       d=""
       id="path3702"
       transform="scale(0.26458333)" />
    <path
       style="fill:#000000;stroke:#000000;stroke-width:0.177055;stroke-linecap:round;stroke-miterlimit:4;stroke-dasharray:none;stop-color:#000000"
       d=""
       id="path3889"
       transform="scale(0.26458333)" />
    <path
       style="fill:#000000;stroke:#000000;stroke-width:0.177055;stroke-linecap:round;stroke-miterlimit:4;stroke-dasharray:none;stop-color:#000000"
       d=""
       id="path3965"
       transform="scale(0.26458333)" />
    <path
       style="fill:#000000;stroke:#000000;stroke-width:0.177055;stroke-linecap:round;stroke-miterlimit:4;stroke-dasharray:none;stop-color:#000000"
       d=""
       id="path4004"
       transform="scale(0.26458333)" />
    <path
       style="fill:#000000;stroke:#000000;stroke-width:0.177055;stroke-linecap:round;stroke-miterlimit:4;stroke-dasharray:none;stop-color:#000000"
       d=""
       id="path4302"
       transform="scale(0.26458333)" />
    <g
       id="g8310"
       transform="translate(-0.94545305)">
      <text
         xml:space="preserve"
         style="font-style:normal;font-variant:normal;font-weight:normal;font-stretch:normal;font-size:3.54963px;line-height:1.25;font-family:'Leelawadee UI';-inkscape-font-specification:'Leelawadee UI, Normal';font-variant-ligatures:normal;font-variant-caps:normal;font-variant-numeric:normal;font-variant-east-asian:normal;letter-spacing:0px;stroke-width:0.0887409"
         x="107.3082"
         y="143.33347"
         id="text48730"><tspan
           sodipodi:role="line"
           id="tspan48728"
           style="font-style:normal;font-variant:normal;font-weight:bold;font-stretch:normal;font-size:3.54963px;font-family:'Leelawadee UI';-inkscape-font-specification:'Leelawadee UI, Normal';font-variant-ligatures:normal;font-variant-caps:normal;font-variant-numeric:normal;font-variant-east-asian:normal;stroke-width:0.0887409"
           x="107.3082"
           y="143.33347">KIT FORT</tspan></text>
      <g
         id="g5508"
         transform="matrix(0.03277995,0,0,0.03277995,106.53421,137.96031)">
        <path
           style="fill:#000000;stroke:#000000;stroke-width:0.264583px;stroke-linecap:butt;stroke-linejoin:miter;stroke-opacity:1"
           d="m -226.88019,117.07812 c 0,0 -7.80523,5.15938 -1.71981,14.94896 6.08542,9.78958 52.65208,20.10833 77.52292,-18.25625 24.87083,-38.364581 33.60208,-58.472914 62.177081,-61.647914 28.574999,-3.175 57.679166,16.404166 57.679166,16.404166 0,0 -33.3375,27.252083 -54.504167,27.78125 -21.16667,0.529167 -24.87083,-3.439583 -24.87083,-3.439583 0,0 -0.72192,3.107735 3.39403,6.47533 4.11595,3.367601 13.657467,7.670641 27.127851,6.548111 13.470385,-1.12254 28.063301,-8.606085 31.805073,-11.599501 3.741774,-2.993419 14.967093,-10.102789 19.457222,-16.463804 5.612659,-2.61924 2.993418,9.728612 2.993418,9.728612 -0.320711,0.183264 -6.624774,31.421253 -19.831399,48.643053 -17.078758,22.27116 -35.886568,39.06306 -59.868375,47.8947 -26.46407,9.74577 -57.03172,8.72631 -84.56408,2.61924 -14.04962,-3.1164 -28.62028,-9.0314 -38.54026,-19.45722 -8.74592,-9.19189 -15.81832,-23.72648 -15.44466,-34.78935 0.35342,-10.46375 5.95872,-18.9333 5.95872,-18.9333"
           id="path54553"
           sodipodi:nodetypes="cssscscsssccsaaasc" />
        <ellipse
           style="fill:#ffffff;stroke:#000000;stroke-width:0.264018;stroke-linecap:round;stroke-miterlimit:4;stroke-dasharray:none;stop-color:#000000"
           id="path104"
           cx="-96.537766"
           cy="78.57724"
           rx="4.1007013"
           ry="5.5918655" />
        <path
           style="fill:#000000;stroke:#000000;stroke-width:0.264583px;stroke-linecap:butt;stroke-linejoin:miter;stroke-opacity:1"
           d="m -117.99438,176.54198 c 0,0 -1.87087,11.97368 -20.95391,21.32811 4.86429,7.85773 28.81164,-5.23848 33.30177,-13.47038 4.49013,-8.2319 2.99342,-11.5995 2.99342,-11.5995"
           id="path1089" />
        <path
           style="fill:#000000;stroke:#000000;stroke-width:0.265;stroke-linecap:butt;stroke-linejoin:miter;stroke-miterlimit:4;stroke-dasharray:none;stroke-opacity:1"
           d="m -102.6531,172.80021 c 0,0 3.812693,17.70177 23.693155,18.51879 19.880468,0.81699 -17.97412,-11.43809 -13.344421,-18.79113"
           id="path2068" />
        <g
           id="g5389">
          <g
             id="g52119"
             transform="rotate(17.515293,-99.274333,-219.46716)">
            <g
               id="g52105"
               transform="translate(-107.95,-8.2020833)">
              <rect
                 style="fill:#000000;fill-opacity:1;stroke:#000000;stroke-width:0.256;stroke-linecap:round;stroke-miterlimit:4;stroke-dasharray:none;stroke-opacity:1;stop-color:#000000"
                 id="rect51524"
                 width="8.4189901"
                 height="20.766842"
                 x="-34.98558"
                 y="103.64712" />
              <circle
                 style="fill:#000000;fill-opacity:1;stroke:#000000;stroke-width:0.342972;stroke-linecap:round;stroke-miterlimit:4;stroke-dasharray:none;stroke-opacity:1;stop-color:#000000"
                 id="path51836"
                 cx="-30.782618"
                 cy="103.77453"
                 r="4.1650424" />
            </g>
            <g
               id="g52111"
               transform="translate(-81.491667,-8.2020833)">
              <rect
                 style="fill:#000000;fill-opacity:1;stroke:#000000;stroke-width:0.256;stroke-linecap:round;stroke-miterlimit:4;stroke-dasharray:none;stroke-opacity:1;stop-color:#000000"
                 id="rect52107"
                 width="8.4189901"
                 height="20.766842"
                 x="-34.98558"
                 y="103.64712" />
              <circle
                 style="fill:#000000;fill-opacity:1;stroke:#000000;stroke-width:0.342972;stroke-linecap:round;stroke-miterlimit:4;stroke-dasharray:none;stroke-opacity:1;stop-color:#000000"
                 id="circle52109"
                 cx="-30.782618"
                 cy="103.77453"
                 r="4.1650424" />
            </g>
          </g>
          <g
             id="g3431">
            <g
               id="g52751"
               transform="rotate(17.515293,-179.9931,-135.9214)">
              <path
                 style="fill:none;stroke:#000000;stroke-width:0.264583px;stroke-linecap:butt;stroke-linejoin:miter;stroke-opacity:1"
                 d="m -128.32291,95.779165 h -24.55903 l -1.50243,1.946762 -1.3855,-1.946762 h -24.67596"
                 id="path52626"
                 sodipodi:nodetypes="ccccc" />
              <path
                 style="fill:none;stroke:#000000;stroke-width:0.264583px;stroke-linecap:butt;stroke-linejoin:miter;stroke-opacity:1"
                 d="m -180.44583,95.779163 1.58749,1.946754"
                 id="path52663"
                 sodipodi:nodetypes="cc" />
              <path
                 style="fill:none;stroke:#000000;stroke-width:0.264583px;stroke-linecap:butt;stroke-linejoin:miter;stroke-opacity:1"
                 d="m -128.32291,95.779163 -1.71977,1.946754"
                 id="path52665"
                 sodipodi:nodetypes="cc" />
            </g>
            <path
               style="fill:none;stroke:#000000;stroke-width:0.264583px;stroke-linecap:butt;stroke-linejoin:miter;stroke-opacity:1"
               d="m -249.22953,87.234763 c 0,0 -5.01317,12.786087 -2.31196,18.314917 2.28667,4.68034 13.4332,7.98494 13.4332,7.98494"
               id="path53532"
               sodipodi:nodetypes="cac" />
            <path
               style="fill:none;stroke:#000000;stroke-width:0.264583px;stroke-linecap:butt;stroke-linejoin:miter;stroke-opacity:1"
               d="m -202.67713,101.92634 c 0,0 -2.78641,13.46511 -8.11523,16.48345 -4.68205,2.65198 -16.08783,-1.33167 -16.08783,-1.33167"
               id="path53614"
               sodipodi:nodetypes="cac" />
          </g>
          <path
             style="fill:#000000;stroke:#000000;stroke-width:1.00157;stroke-linecap:round;stroke-miterlimit:4;stroke-dasharray:none;stop-color:#000000"
             d="m -821.20883,449.67387 c -7.73817,-0.68532 -18.93082,-2.94268 -28.10678,-5.66865 -3.82026,-1.13492 -7.31855,-2.06348 -7.77397,-2.06348 -1.06483,0 -41.65108,-12.76647 -43.05735,-13.54375 -0.58337,-0.32245 -4.24265,-1.73605 -8.13173,-3.14135 -8.79135,-3.1767 -22.59882,-9.83901 -28.49055,-13.74714 -6.35838,-4.21765 -11.25658,-9.25547 -13.26557,-13.64369 -4.95508,-10.82331 -3.00058,-31.49605 5.44343,-57.57531 l 3.54725,-10.95565 -1.46251,-3.51919 c -0.95258,-2.29216 -1.15754,-3.41102 -0.58784,-3.20893 0.48106,0.17065 20.01519,6.32841 43.40918,13.68392 l 42.53452,13.37365 1.2515,4.09965 c 0.68834,2.2548 1.52088,4.26613 1.85011,4.4696 0.32924,0.20348 2.14652,-0.76632 4.03842,-2.1551 1.8919,-1.38878 3.79517,-2.52506 4.2295,-2.52506 0.64064,0 81.32909,25.24058 84.91633,26.56312 0.70154,0.25865 -0.0778,1.03878 -2.38202,2.38454 l -3.42469,2.00012 -1.99082,7.68386 c -6.24698,24.11102 -16.09114,44.49164 -25.18703,52.14532 -5.65763,4.76059 -14.48173,6.48401 -27.35938,5.34352 z"
             id="path3470"
             transform="scale(0.26458333)" />
          <path
             style="fill:#000000;stroke:#000000;stroke-width:0.0442638;stroke-linecap:round;stroke-miterlimit:4;stroke-dasharray:none;stop-color:#000000"
             d="m -944.2431,322.56396 c -0.1733,-0.44264 -0.30895,-0.81094 -0.30145,-0.81844 0.0252,-0.0252 1.08612,0.31912 1.08672,0.35267 3.3e-4,0.0182 -0.0255,0.0331 -0.0574,0.0331 -0.10457,0 -0.29923,0.24883 -0.36698,0.46909 -0.0461,0.14989 -0.0578,0.3004 -0.0382,0.49214 0.0155,0.15192 0.0202,0.27621 0.0103,0.27621 -0.01,0 -0.15973,-0.36216 -0.33302,-0.80481 z"
             id="path4452"
             transform="scale(0.26458333)" />
          <path
             style="fill:#000000;stroke:#000000;stroke-width:0.0039124;stroke-linecap:round;stroke-miterlimit:4;stroke-dasharray:none;stop-color:#000000"
             d="m -760.94127,381.58459 c 0.003,-0.003 0.0321,-0.027 0.0643,-0.0536 0.12926,-0.10664 0.26682,-0.23328 0.35538,-0.32717 0.24041,-0.25484 0.3637,-0.47127 0.39915,-0.70068 0.009,-0.0589 0.009,-0.1731 -5e-5,-0.22863 -0.0261,-0.15864 -0.0916,-0.28726 -0.20735,-0.40682 -0.0197,-0.0203 -0.0319,-0.0356 -0.0276,-0.0344 0.0417,0.0118 1.52419,0.48069 1.52643,0.48278 0.003,0.003 -2.10595,1.27374 -2.11293,1.27374 -0.002,0 -4.9e-4,-0.002 0.003,-0.005 z"
             id="path4713"
             transform="scale(0.26458333)" />
          <path
             style="fill:#000000;stroke:#000000;stroke-width:0.0039124;stroke-linecap:round;stroke-miterlimit:4;stroke-dasharray:none;stop-color:#000000"
             d="m -766.17773,385.19934 c -0.13091,-0.0272 -0.14447,-0.0307 -0.14387,-0.0375 10e-4,-0.0124 0.0734,-0.2907 0.0755,-0.29071 0.003,0 0.21596,0.35571 0.21423,0.35716 -7.4e-4,6.2e-4 -0.0664,-0.0124 -0.14587,-0.0289 z"
             id="path4789"
             transform="scale(0.26458333)" />
        </g>
      </g>
    </g>
    <g
       id="g10868"
       transform="matrix(0.59292186,0,0,-0.39955724,52.698435,199.94108)"
       style="stroke-width:0.50032;stroke-miterlimit:4;stroke-dasharray:none">
      <path
         style="fill:#000000;stroke:#000000;stroke-width:0.50032;stroke-linecap:butt;stroke-linejoin:miter;stroke-miterlimit:4;stroke-dasharray:none;stroke-opacity:1"
         d="m 4.7008122,119.93071 c 2.2090327,-2.55611 4.9879598,-2.09428 4.9879598,-2.09428 l 172.127698,-10e-6 c 0,0 2.77892,-0.46183 4.98796,2.09428 2.20903,2.55611 2.04883,7.39997 2.04883,7.39997 l -186.2012852,2e-5 c 0,0 -0.1601953,-4.84387 2.0488374,-7.39998 z"
         id="path10862"
         sodipodi:nodetypes="zcczccz" />
    </g>
    <g
       id="g6180"
       transform="translate(-0.23317275)">
      <rect
         style="fill:#501616;fill-opacity:1;stroke:#501616;stroke-width:0.264999;stroke-linecap:round;stroke-miterlimit:4;stroke-dasharray:none;stroke-opacity:1;stop-color:#000000"
         id="rect24868"
         width="6.0803819"
         height="1.2160764"
         x="126.22904"
         y="112.87508" />
      <path
         style="fill:#ffffff;stroke:#ffffff;stroke-width:0.153808px;stroke-linecap:butt;stroke-linejoin:miter;stroke-opacity:1"
         d="m 127.4906,112.80922 h 2.32566 l -0.52604,1.33512 h -1.30126 z"
         id="path10320" />
    </g>
    <g
       id="g3206"
       transform="translate(-0.80413781,-0.36280099)">
      <g
         id="g2331"
         transform="matrix(0.08587943,0,0,0.08587943,102.07848,102.64562)">
        <path
           style="fill:#000000;stroke:#000000;stroke-width:0.264583px;stroke-linecap:round;stroke-linejoin:miter;stroke-opacity:1"
           d="M 17.28847,152.90349 V 130.8724 c 0,0 -1.742962,-5.31146 -3.069759,-5.31114 -1.326797,3.1e-4 -3.069759,5.31697 -3.069759,5.31697 v 22.02526 c 0,0 1.742962,5.31698 3.069759,5.31698 1.326797,0 3.069759,-5.31698 3.069759,-5.31698 z"
           id="path88"
           sodipodi:nodetypes="cczcczc" />
        <path
           style="fill:#000000;stroke:#000000;stroke-width:0.264583px;stroke-linecap:round;stroke-linejoin:miter;stroke-opacity:1"
           d="M 17.28847,119.04045 V 97.009345 c 0,0 -1.742962,-5.31146 -3.069759,-5.31114 -1.326797,3.2e-4 -3.069759,5.31698 -3.069759,5.31698 v 22.025265 c 0,0 1.742962,5.31698 3.069759,5.31698 1.326797,0 3.069759,-5.31698 3.069759,-5.31698 z"
           id="path2132"
           sodipodi:nodetypes="cczcczc" />
      </g>
      <g
         id="g2691"
         transform="matrix(0.08587943,0,0,0.08587943,113.86691,102.70185)">
        <path
           style="fill:#000000;stroke:#000000;stroke-width:0.264583px;stroke-linecap:round;stroke-linejoin:miter;stroke-opacity:1"
           d="m -103.52888,152.90349 v -22.0311 c 0,0 -1.74296,-5.31146 -3.06976,-5.31114 -1.32679,3.2e-4 -3.06976,5.31698 -3.06976,5.31698 v 22.02526 c 0,0 1.74297,5.31698 3.06976,5.31698 1.3268,0 3.06976,-5.31698 3.06976,-5.31698 z"
           id="path2134"
           sodipodi:nodetypes="cczcczc" />
        <path
           style="fill:#000000;stroke:#000000;stroke-width:0.264583px;stroke-linecap:round;stroke-linejoin:miter;stroke-opacity:1"
           d="M -70.074416,117.54374 V 95.512642 c 0,0 -1.742962,-5.31146 -3.069759,-5.31115 -1.326797,3.2e-4 -3.069759,5.31698 -3.069759,5.31698 v 22.025268 c 0,0 1.742962,5.31698 3.069759,5.31698 1.326797,0 3.069759,-5.31698 3.069759,-5.31698 z"
           id="path2136"
           sodipodi:nodetypes="cczcczc" />
        <path
           style="fill:#000000;stroke:#000000;stroke-width:0.264583px;stroke-linecap:round;stroke-linejoin:miter;stroke-opacity:1"
           d="m -100.68952,162.54697 h 22.031099 c 0,0 5.311461,-1.74295 5.311151,-3.06975 -3.2e-4,-1.3268 -5.316979,-3.06976 -5.316979,-3.06976 h -22.025271 c 0,0 -5.31698,1.74296 -5.31698,3.06976 0,1.3268 5.31698,3.06975 5.31698,3.06975 z"
           id="path2142"
           sodipodi:nodetypes="cczcczc" />
        <path
           style="fill:#000000;stroke:#000000;stroke-width:0.264583px;stroke-linecap:round;stroke-linejoin:miter;stroke-opacity:1"
           d="m -100.78306,127.56138 h 22.031088 c 0,0 5.31146,-1.74296 5.31115,-3.06976 -3.2e-4,-1.3268 -5.31698,-3.06976 -5.31698,-3.06976 h -22.025258 c 0,0 -5.31698,1.74296 -5.31698,3.06976 0,1.3268 5.31698,3.06976 5.31698,3.06976 z"
           id="path2333"
           sodipodi:nodetypes="cczcczc" />
        <path
           style="fill:#000000;stroke:#000000;stroke-width:0.264583px;stroke-linecap:round;stroke-linejoin:miter;stroke-opacity:1"
           d="m -100.68951,92.201622 h 22.03109 c 0,0 5.31146,-1.74296 5.311144,-3.06976 -3.16e-4,-1.3268 -5.316979,-3.06976 -5.316979,-3.06976 h -22.025255 c 0,0 -5.31698,1.74296 -5.31698,3.06976 0,1.3268 5.31698,3.06976 5.31698,3.06976 z"
           id="path2335"
           sodipodi:nodetypes="cczcczc" />
      </g>
      <g
         id="g2674"
         transform="matrix(0.08587943,0,0,0.08587943,113.71104,102.69246)">
        <circle
           style="fill:#000000;stroke:#000000;stroke-width:0.264999;stroke-linecap:round;stop-color:#000000"
           id="path2552"
           cx="-56.126602"
           cy="111.50484"
           r="3.9288619" />
        <circle
           style="fill:#000000;stroke:#000000;stroke-width:0.264999;stroke-linecap:round;stop-color:#000000"
           id="circle2554"
           cx="-56.126602"
           cy="137.32309"
           r="3.9288619" />
      </g>
      <g
         id="g3148"
         transform="matrix(0.08587943,0,0,0.08587943,112.13111,102.55577)">
        <g
           id="g2788"
           transform="translate(6.7351944,-34.237224)">
          <path
             style="fill:#000000;stroke:#000000;stroke-width:0.264583px;stroke-linecap:round;stroke-linejoin:miter;stroke-opacity:1"
             d="m -23.23481,128.68392 h 22.0310987 c 0,0 5.311461,-1.74295 5.311151,-3.06975 -3.2e-4,-1.3268 -5.316979,-3.06976 -5.316979,-3.06976 H -23.23481 c 0,0 -5.31698,1.74296 -5.31698,3.06976 0,1.3268 5.31698,3.06975 5.31698,3.06975 z"
             id="path2786"
             sodipodi:nodetypes="cczcczc" />
        </g>
        <g
           id="g2792"
           transform="translate(3.3617704,20.98835)">
          <path
             style="fill:#000000;stroke:#000000;stroke-width:0.264583px;stroke-linecap:round;stroke-linejoin:miter;stroke-opacity:1"
             d="M -20.802657,142.71557 H 1.2284414 c 0,0 5.311461,-1.74295 5.311151,-3.06975 -3.2e-4,-1.3268 -5.316979,-3.06976 -5.316979,-3.06976 H -20.802657 c 0,0 -5.31698,1.74296 -5.31698,3.06976 0,1.3268 5.31698,3.06975 5.31698,3.06975 z"
             id="path2790"
             sodipodi:nodetypes="cczcczc" />
        </g>
        <g
           id="g2970"
           transform="translate(-37.043554,0.93544335)">
          <path
             style="fill:#000000;stroke:#000000;stroke-width:0.264583px;stroke-linecap:round;stroke-linejoin:miter;stroke-opacity:1"
             d="M 17.28847,152.90349 V 130.8724 c 0,0 -1.742962,-5.31146 -3.069759,-5.31114 -1.326797,3.1e-4 -3.069759,5.31697 -3.069759,5.31697 v 22.02526 c 0,0 1.742962,5.31698 3.069759,5.31698 1.326797,0 3.069759,-5.31698 3.069759,-5.31698 z"
             id="path2966"
             sodipodi:nodetypes="cczcczc" />
          <path
             style="fill:#000000;stroke:#000000;stroke-width:0.264583px;stroke-linecap:round;stroke-linejoin:miter;stroke-opacity:1"
             d="M 17.28847,119.04045 V 97.009345 c 0,0 -1.742962,-5.31146 -3.069759,-5.31114 -1.326797,3.2e-4 -3.069759,5.31698 -3.069759,5.31698 v 22.025265 c 0,0 1.742962,5.31698 3.069759,5.31698 1.326797,0 3.069759,-5.31698 3.069759,-5.31698 z"
             id="path2968"
             sodipodi:nodetypes="cczcczc" />
        </g>
        <g
           id="g2976"
           transform="translate(-2.9934159,0.93544335)">
          <path
             style="fill:#000000;stroke:#000000;stroke-width:0.264583px;stroke-linecap:round;stroke-linejoin:miter;stroke-opacity:1"
             d="M 17.28847,152.90349 V 130.8724 c 0,0 -1.742962,-5.31146 -3.069759,-5.31114 -1.326797,3.1e-4 -3.069759,5.31697 -3.069759,5.31697 v 22.02526 c 0,0 1.742962,5.31698 3.069759,5.31698 1.326797,0 3.069759,-5.31698 3.069759,-5.31698 z"
             id="path2972"
             sodipodi:nodetypes="cczcczc" />
          <path
             style="fill:#000000;stroke:#000000;stroke-width:0.264583px;stroke-linecap:round;stroke-linejoin:miter;stroke-opacity:1"
             d="M 17.28847,119.04045 V 97.009345 c 0,0 -1.742962,-5.31146 -3.069759,-5.31114 -1.326797,3.2e-4 -3.069759,5.31698 -3.069759,5.31698 v 22.025265 c 0,0 1.742962,5.31698 3.069759,5.31698 1.326797,0 3.069759,-5.31698 3.069759,-5.31698 z"
             id="path2974"
             sodipodi:nodetypes="cczcczc" />
        </g>
      </g>
      <g
         id="g3170"
         transform="matrix(0.08587943,0,0,0.08587943,116.3139,102.55577)">
        <g
           id="g3152"
           transform="translate(6.7351944,-34.237224)">
          <path
             style="fill:#000000;stroke:#000000;stroke-width:0.264583px;stroke-linecap:round;stroke-linejoin:miter;stroke-opacity:1"
             d="m -23.23481,128.68392 h 22.0310987 c 0,0 5.311461,-1.74295 5.311151,-3.06975 -3.2e-4,-1.3268 -5.316979,-3.06976 -5.316979,-3.06976 H -23.23481 c 0,0 -5.31698,1.74296 -5.31698,3.06976 0,1.3268 5.31698,3.06975 5.31698,3.06975 z"
             id="path3150"
             sodipodi:nodetypes="cczcczc" />
        </g>
        <g
           id="g3156"
           transform="translate(3.3617704,20.98835)">
          <path
             style="fill:#000000;stroke:#000000;stroke-width:0.264583px;stroke-linecap:round;stroke-linejoin:miter;stroke-opacity:1"
             d="M -20.802657,142.71557 H 1.2284414 c 0,0 5.311461,-1.74295 5.311151,-3.06975 -3.2e-4,-1.3268 -5.316979,-3.06976 -5.316979,-3.06976 H -20.802657 c 0,0 -5.31698,1.74296 -5.31698,3.06976 0,1.3268 5.31698,3.06975 5.31698,3.06975 z"
             id="path3154"
             sodipodi:nodetypes="cczcczc" />
        </g>
        <g
           id="g3162"
           transform="translate(-37.043554,0.93544335)">
          <path
             style="fill:#000000;stroke:#000000;stroke-width:0.264583px;stroke-linecap:round;stroke-linejoin:miter;stroke-opacity:1"
             d="M 17.28847,152.90349 V 130.8724 c 0,0 -1.742962,-5.31146 -3.069759,-5.31114 -1.326797,3.1e-4 -3.069759,5.31697 -3.069759,5.31697 v 22.02526 c 0,0 1.742962,5.31698 3.069759,5.31698 1.326797,0 3.069759,-5.31698 3.069759,-5.31698 z"
             id="path3158"
             sodipodi:nodetypes="cczcczc" />
          <path
             style="fill:#000000;stroke:#000000;stroke-width:0.264583px;stroke-linecap:round;stroke-linejoin:miter;stroke-opacity:1"
             d="M 17.28847,119.04045 V 97.009345 c 0,0 -1.742962,-5.31146 -3.069759,-5.31114 -1.326797,3.2e-4 -3.069759,5.31698 -3.069759,5.31698 v 22.025265 c 0,0 1.742962,5.31698 3.069759,5.31698 1.326797,0 3.069759,-5.31698 3.069759,-5.31698 z"
             id="path3160"
             sodipodi:nodetypes="cczcczc" />
        </g>
        <g
           id="g3168"
           transform="translate(-2.9934159,0.93544335)">
          <path
             style="fill:#000000;stroke:#000000;stroke-width:0.264583px;stroke-linecap:round;stroke-linejoin:miter;stroke-opacity:1"
             d="M 17.28847,152.90349 V 130.8724 c 0,0 -1.742962,-5.31146 -3.069759,-5.31114 -1.326797,3.1e-4 -3.069759,5.31697 -3.069759,5.31697 v 22.02526 c 0,0 1.742962,5.31698 3.069759,5.31698 1.326797,0 3.069759,-5.31698 3.069759,-5.31698 z"
             id="path3164"
             sodipodi:nodetypes="cczcczc" />
          <path
             style="fill:#000000;stroke:#000000;stroke-width:0.264583px;stroke-linecap:round;stroke-linejoin:miter;stroke-opacity:1"
             d="M 17.28847,119.04045 V 97.009345 c 0,0 -1.742962,-5.31146 -3.069759,-5.31114 -1.326797,3.2e-4 -3.069759,5.31698 -3.069759,5.31698 v 22.025265 c 0,0 1.742962,5.31698 3.069759,5.31698 1.326797,0 3.069759,-5.31698 3.069759,-5.31698 z"
             id="path3166"
             sodipodi:nodetypes="cczcczc" />
        </g>
      </g>
    </g>
    <path
       style="fill:#000000;stroke:#000000;stroke-width:0.18489;stroke-linecap:butt;stroke-linejoin:miter;stroke-miterlimit:4;stroke-dasharray:none;stroke-opacity:1"
       d="m 50.123621,88.514158 c 0,0 -0.557063,-4.14373 1.817136,-6.983389 2.3742,-2.83966 6.502362,-2.333461 6.502362,-2.333461 l 102.058271,-7e-6 c 0,0 4.12816,-0.506199 6.50236,2.333461 2.37421,2.839659 1.81714,6.983389 1.81714,6.983389"
       id="path4129"
       sodipodi:nodetypes="czcczc" />
    <text
       xml:space="preserve"
       style="font-size:1.52769px;line-height:1.25;font-family:sans-serif;letter-spacing:0px;fill:#ffffff;stroke-width:0.0381923"
       x="86.080193"
       y="111.30872"
       id="text4665"><tspan
         sodipodi:role="line"
         id="tspan4663"
         style="fill:#ffffff;stroke-width:0.0381923"
         x="86.080193"
         y="111.30872">Отсрочка</tspan></text>
    <text
       xml:space="preserve"
       style="font-size:1.52769px;line-height:1.25;font-family:sans-serif;letter-spacing:0px;fill:#ffffff;stroke-width:0.0381923"
       x="126.33762"
       y="111.30872"
       id="text6171"><tspan
         sodipodi:role="line"
         id="tspan6169"
         style="fill:#ffffff;stroke-width:0.0381923"
         x="126.33762"
         y="111.30872">Работа</tspan></text>
    <text
       xml:space="preserve"
       style="font-size:1.52769px;line-height:1.25;font-family:sans-serif;letter-spacing:0px;fill:#ffffff;stroke-width:0.0381923"
       x="87.111443"
       y="132.30473"
       id="text7346"><tspan
         sodipodi:role="line"
         id="tspan7344"
         style="fill:#ffffff;stroke-width:0.0381923"
         x="87.111443"
         y="132.30473">Установка</tspan></text>
    <text
       xml:space="preserve"
       style="font-size:1.52769px;line-height:1.25;font-family:sans-serif;letter-spacing:0px;fill:#ffffff;stroke-width:0.0381923"
       x="101.3805"
       y="132.30473"
       id="text7724"><tspan
         sodipodi:role="line"
         id="tspan7722"
         style="fill:#ffffff;stroke-width:0.0381923"
         x="101.3805"
         y="132.30473">Часы</tspan></text>
    <text
       xml:space="preserve"
       style="font-size:1.52769px;line-height:1.25;font-family:sans-serif;letter-spacing:0px;fill:#ffffff;stroke-width:0.0381923"
       x="112.52451"
       y="132.30473"
       id="text8133"><tspan
         sodipodi:role="line"
         id="tspan8131"
         style="fill:#ffffff;stroke-width:0.0381923"
         x="112.52451"
         y="132.30473">Минуты</tspan></text>
    <text
       xml:space="preserve"
       style="font-size:1.52769px;line-height:1.25;font-family:sans-serif;letter-spacing:0px;fill:#ffffff;stroke-width:0.0381923"
       x="124.10109"
       y="132.30473"
       id="text8526"><tspan
         sodipodi:role="line"
         id="tspan8524"
         style="fill:#ffffff;stroke-width:0.0381923"
         x="124.10109"
         y="132.30473">Вкл/выкл</tspan></text>
  </g>
  <g
     inkscape:groupmode="layer"
     id="layer2"
     inkscape:label="Детали" />
</svg>
